<svg width="18" height="18" viewBox="0 0 18 18" fill="none" xmlns="http://www.w3.org/2000/svg">
<rect width="18" height="17.6456" rx="4" fill="#F38120"/>
<path d="M12.4731 6.90711L11.8387 6.2984C11.7531 6.21633 11.6462 6.17529 11.525 6.17529C11.4038 6.17529 11.2969 6.21633 11.2113 6.2984L8.16024 9.22566L6.79866 7.91249C6.71311 7.83042 6.60618 7.78939 6.48499 7.78939C6.3638 7.78939 6.25687 7.83042 6.17133 7.91249L5.53687 8.5212C5.4442 8.60327 5.40143 8.70586 5.40143 8.82213C5.40143 8.9384 5.4442 9.04099 5.52975 9.12306L7.21212 10.7372L7.84658 11.3459C7.93212 11.4279 8.03905 11.469 8.16024 11.469C8.28143 11.469 8.38836 11.4279 8.4739 11.3459L9.10836 10.7372L12.4731 7.50897C12.5587 7.4269 12.6014 7.32431 12.6014 7.20804C12.6014 7.09177 12.5587 6.98918 12.4731 6.90711Z" fill="white"/>
</svg>
